<svg xmlns="http://www.w3.org/2000/svg" xmlns:xlink="http://www.w3.org/1999/xlink" width="1536" height="600" viewBox="0 0 1536 600">
  <defs>
    <clipPath id="clip-average-car-insurance-cost_hero-block-image">
      <rect width="1536" height="600"/>
    </clipPath>
  </defs>
  <g id="average-car-insurance-cost_hero-block-image" clip-path="url(#clip-average-car-insurance-cost_hero-block-image)">
    <rect width="1536" height="600" fill="#fff"/>
    <g id="hero-average-car-insurance-cost" transform="translate(-671.658 -269.183)">
      <rect id="Rectangle_1812" data-name="Rectangle 1812" width="2212.891" height="1058.286" fill="#06a29b"/>
      <path id="Path_84541" data-name="Path 84541" d="M1419.721,185.1a12.27,12.27,0,0,1-24.54,0l-90.644,255.982L1293.8,472.524s13.19-14.571,28.835-1.534l24.54-.307,169.019-2.3" transform="translate(690.562 98.797)" fill="#1fb1a2"/>
      <ellipse id="Ellipse_934" data-name="Ellipse 934" cx="301.688" cy="42.178" rx="301.688" ry="42.178" transform="translate(1339.115 957.825)" fill="#078276"/>
      <path id="Path_84542" data-name="Path 84542" d="M1408.551,371.406s-17.485-73.62-3.068-95.706C1405.33,275.547,1419.747,285.517,1408.551,371.406Z" transform="translate(747.131 147.153)" fill="#55d8cb"/>
      <path id="Path_84543" data-name="Path 84543" d="M1405,378.119s-.614-75.767,18.252-94.019C1423.253,284.1,1435.216,296.983,1405,378.119Z" transform="translate(749.914 151.638)" fill="#55d8cb"/>
      <path id="Path_84544" data-name="Path 84544" d="M1403.8,382.1s14.417-74.233,36.657-88.5C1440.457,293.6,1449.505,308.631,1403.8,382.1Z" transform="translate(749.274 156.708)" fill="#55d8cb"/>
      <path id="Path_84545" data-name="Path 84545" d="M1411.187,378.119s.614-75.767-18.252-94.019C1392.782,284.1,1380.972,296.983,1411.187,378.119Z" transform="translate(742.194 151.638)" fill="#55d8cb"/>
      <path id="Path_84546" data-name="Path 84546" d="M1418.219,382.1s-14.417-74.233-36.656-88.5C1381.563,293.6,1372.36,308.631,1418.219,382.1Z" transform="translate(737.002 156.708)" fill="#55d8cb"/>
      <path id="Path_84547" data-name="Path 84547" d="M1427.371,320H1385.5l13.19,83.743h32.822L1444.7,320Z" transform="translate(739.507 170.799)" fill="#fc557d"/>
      <path id="Path_84548" data-name="Path 84548" d="M919.9,334.631s0-6.9,6.442-8.742a7.147,7.147,0,0,1,7.362,2.3c9.2,10.583,18.4,21.319,27.761,31.749,8.9,9.816,17.638,20.4,27.761,28.988,16.718,14.264,37.577,14.417,58.589,16.258,14.724,1.227,29.448,2.147,44.325,2.761,12.577.46,25.767-.767,38.19,1.074,5.675.767-17.638,2.914-14.417,9.049,1.534,3.067,0,6.6-1.534,9.663-2.147,4.141-4.295,8.436-6.442,12.577a8.374,8.374,0,0,1-3.068,3.834c-2.147,1.227-4.755.767-7.209.153L994.134,418.22l-1.074-.307a6.318,6.318,0,0,1-3.681-2.3l-41.1-46.319" transform="translate(490.994 173.807)" fill="#8fd8f2"/>
      <path id="Path_84549" data-name="Path 84549" d="M1208.4,406.4l360.277,272.393v-243.1Z" transform="translate(644.98 216.915)" fill="#078276"/>
      <rect id="Rectangle_1813" data-name="Rectangle 1813" width="40.644" height="394.173" transform="translate(1787.429 607.364)" fill="#8fd8f2"/>
      <path id="Path_84550" data-name="Path 84550" d="M1251.5,396h40.644v45.245L1251.5,411.951Z" transform="translate(667.985 211.364)" fill="#ffa452"/>
      <rect id="Rectangle_1814" data-name="Rectangle 1814" width="319.786" height="45.246" transform="translate(1827.92 607.364)" fill="#8fd8f2"/>
      <path id="Path_84551" data-name="Path 84551" d="M1445.682,741.692,1295.835,583.256,1092,496.906l72.086-48.006,165.952,69.479L1485.56,700.435l-4.448,28.221Z" transform="translate(582.852 239.599)" fill="#042647"/>
      <path id="Path_84552" data-name="Path 84552" d="M1243.186,426.777l59.049-91.565a27.608,27.608,0,0,0,4.294-17.331l-3.681-38.344a4.6,4.6,0,0,0-6.288-3.681h0a4.6,4.6,0,0,0-2.607,2.914l-1.38,11.656a5.537,5.537,0,0,1-6.9,3.681c-.46-.153-1.074-.46-1.534-.613l-18.865-12.27,10.123-13.65a5.092,5.092,0,0,0-.307-6.442h0a2.424,2.424,0,0,0-3.374-.307l-15.031,12.884-13.344-16.1a3.558,3.558,0,0,0-4.754-.46l-.46.46h0a3.068,3.068,0,0,0-.307,3.374l17.485,27.147,19.018,26.994-78.221,87.73Z" transform="translate(638.415 136.875)" fill="#a3472b"/>
      <path id="Path_84553" data-name="Path 84553" d="M1234.057,280.184a.8.8,0,0,1-.614-.307c-1.534-2.3-.614-9.049,3.374-12.423a.767.767,0,1,1,.92,1.227c-3.374,2.914-4.141,8.742-3.068,10.429a.813.813,0,0,1-.307,1.074Z" transform="translate(657.973 142.671)" fill="#842e23"/>
      <path id="Path_84554" data-name="Path 84554" d="M1236.691,342.934l9.356-14.571,7.975,1.687a6.135,6.135,0,0,0,7.362-4.6h0a4.723,4.723,0,0,0,.153-1.534V295.235l8.9-19.632a43.743,43.743,0,0,0-16.411-55.062l-16.411-10.429a49.709,49.709,0,0,0-68.635,15.215l-.077.123c-.153.153-.153.307-.307.46h0a77.055,77.055,0,0,0-11.656,41.258l.153,24.08-35.89,7.822,30.982,52.147,44.479-12.73,16.564,10.276a17.822,17.822,0,0,0,23.466-5.828Z" transform="translate(598.438 107.987)" fill="#a3472b"/>
      <path id="Path_84558" data-name="Path 84558" d="M1225.176,209.908l-2.3-1.38a49.785,49.785,0,0,0-64.571,13.957l-2.147,3.221-2.607,4.448a76.686,76.686,0,0,0-9.049,36.657l.154,24.08,6.288,1.687a22.3,22.3,0,0,0,24.693-9.969l6.135-9.816a12.178,12.178,0,0,1,16.1-4.141h0A9.923,9.923,0,0,1,1202.63,280l-.307,1.38h0a8.666,8.666,0,0,0,11.657-3.067l6.748-10.89,1.073.153a19.939,19.939,0,0,0,19.325-8.436l3.834-5.368,16.871,2.454,7.515,1.074a8.957,8.957,0,0,0,9.509-5.215h0a8.819,8.819,0,0,0-3.527-11.2Z" transform="translate(610.873 107.884)" fill="#042647"/>
      <path id="Path_84559" data-name="Path 84559" d="M1155.7,301.233h0l22.546-6.442,16.565,10.276L1178.4,285.742a7.01,7.01,0,0,0-9.816-.767c-.307.307-.767.614-.92,1.074Z" transform="translate(616.852 151.223)" fill="#842e23"/>
      <path id="Path_84560" data-name="Path 84560" d="M1149.93,546.819l38.65-30.368,24.54-142.792-2.454-55.368-38.19-63.19s-61.043,32.669-93.252,113.191c-31.289,78.068-35.89,111.81-39.724,145.246h0Z" transform="translate(554.83 136.159)" fill="#8d60c5"/>
      <path id="Path_84561" data-name="Path 84561" d="M1057.346,502.165c17.945,13.65,65.645,20.092,125.614,22.7s109.663,4.6,109.663,4.6-21.779,141.718-21.779,255.829h125.921v-3.988a14.049,14.049,0,0,0-8.436-12.883l-44.939-19.939s8.9-12.117,1.227-17.945-19.479,5.368-19.479,5.368l44.019-228.988a45.245,45.245,0,0,0-35.813-53.022h-.23l-143.865-27.3-38.65,30.368L1040.321,423.53h0l-.306,3.068C1036.027,461.061,1039.554,488.668,1057.346,502.165Z" transform="translate(554.315 226.058)" fill="#0a3360"/>
      <path id="Path_84562" data-name="Path 84562" d="M1190.92,634.461c-.614,15.031-.92,29.908-.92,44.479h125.921v-4.294a13.8,13.8,0,0,0-7.975-12.423L1262.7,642.13s8.9-12.117,1.227-17.945-19.479,5.368-19.479,5.368C1233.865,642.743,1212.086,645.044,1190.92,634.461Z" transform="translate(635.159 332.26)" fill="#a3472b"/>
      <path id="Path_84563" data-name="Path 84563" d="M1314.847,653H1190v9.663h125.921v-4.294A12.917,12.917,0,0,0,1314.847,653Z" transform="translate(635.159 348.537)" fill="#c76e39"/>
      <path id="Path_84564" data-name="Path 84564" d="M1322.6,664.6c10.89,10.276,21.933,20.4,32.822,29.908l82.669-95.092-3.221-2.761a13.359,13.359,0,0,0-14.571-1.994l-44.939,20.859s-3.221-14.724-12.73-12.577-8.742,18.252-8.742,18.252C1357.109,637.6,1344.533,655.547,1322.6,664.6Z" transform="translate(705.934 316.696)" fill="#a3472b"/>
      <path id="Path_84565" data-name="Path 84565" d="M1421.3,593.8l-81.9,94.172c2.454,2.147,4.908,4.295,7.208,6.442l82.669-95.092-3.221-2.761A10,10,0,0,0,1421.3,593.8Z" transform="translate(714.901 316.939)" fill="#c76e39"/>
      <path id="Path_84566" data-name="Path 84566" d="M1361.064,618.387a.844.844,0,0,1-.767-.46l-3.681-9.509a1.013,1.013,0,0,1,.307-1.074c.307-.307.767,0,1.074.307v.153l3.681,9.509a.644.644,0,0,1-.291.859h-.169c0,.153,0,.153-.153.153Z" transform="translate(724.065 324.1)" fill="#ffcc8f"/>
      <path id="Path_84567" data-name="Path 84567" d="M1368.464,615.287a.844.844,0,0,1-.767-.46l-3.681-9.509a1.013,1.013,0,0,1,.307-1.074c.307-.307.767,0,1.074.307v.153l3.681,9.509a.644.644,0,0,1-.291.859h-.169a.153.153,0,0,1-.153.153Z" transform="translate(728.015 322.446)" fill="#ffcc8f"/>
      <path id="Path_84568" data-name="Path 84568" d="M1233.768,643.236a.721.721,0,0,1-.767-.675.681.681,0,0,1,0-.092.569.569,0,0,1,.153-.46l5.982-6.9a.767.767,0,0,1,1.227.92l-5.982,6.9a1.166,1.166,0,0,1-.614.307Z" transform="translate(658.109 338.823)" fill="#ffcc8f"/>
      <path id="Path_84569" data-name="Path 84569" d="M1113.3,324.9l50.46,69.785,9.049-48.466Z" transform="translate(594.221 173.414)" fill="#6f459e"/>
      <path id="Path_84570" data-name="Path 84570" d="M1240.768,646.136a.722.722,0,0,1-.767-.767.569.569,0,0,1,.153-.46l5.981-6.9a.767.767,0,0,1,1.227.92l-5.982,6.9C1241.229,645.982,1241.075,645.982,1240.768,646.136Z" transform="translate(661.845 340.371)" fill="#ffcc8f"/>
      <path id="Path_84571" data-name="Path 84571" d="M1220.691,354.933,1176.212,305.7,1132.5,356.467l51.994,37.577a57.854,57.854,0,0,0,33.743,10.89H1359.8l3.834-20.706Z" transform="translate(604.469 163.166)" fill="#a3472b"/>
      <path id="Path_84572" data-name="Path 84572" d="M1146.5,272.6l-43.1,69.172,44.632,32.362,43.712-50.767Z" transform="translate(588.937 145.499)" fill="#8d60c5"/>
      <path id="Path_84573" data-name="Path 84573" d="M1134.755,365.461l-1.227-.92,45.092-53.374-22.853-25.307a36.963,36.963,0,0,0-49.847-4.6l-.92-1.227a38.574,38.574,0,0,1,51.841,4.755l23.773,26.38Z" transform="translate(589.791 145.277)" fill="#6f459e"/>
      <rect id="Rectangle_1815" data-name="Rectangle 1815" width="1.534" height="55.215" transform="translate(1698.807 490.614) rotate(-53.93)" fill="#6f459e"/>
      <rect id="Rectangle_1816" data-name="Rectangle 1816" width="15.337" height="1.534" transform="matrix(0.993, -0.117, 0.117, 0.993, 1692.33, 499.231)" fill="#6f459e"/>
      <rect id="Rectangle_1817" data-name="Rectangle 1817" width="1.534" height="26.227" transform="matrix(0.725, -0.689, 0.689, 0.725, 1711.836, 401.759)" fill="#6f459e"/>
      <rect id="Rectangle_1818" data-name="Rectangle 1818" width="1.534" height="69.632" transform="translate(1681.057 640.044) rotate(-80.82)" fill="#6f459e"/>
      <rect id="Rectangle_1819" data-name="Rectangle 1819" width="1.534" height="26.841" transform="translate(1707.184 634.011) rotate(-66.92)" fill="#6f459e"/>
      <path id="Path_84574" data-name="Path 84574" d="M1285.769,361.949l37.27-13.65a13.589,13.589,0,0,1,11.2.767l15.951,8.436a13.8,13.8,0,0,1,6.6,7.515L1362,379.28a2.454,2.454,0,0,1-1.4,3.175h-.138a1.948,1.948,0,0,1-.92.153h-1.227a5.306,5.306,0,0,1-4.294-2.3l-8.436-14.111-15.491-2.561s-7.669,19.018-21.626,19.018h-26.841l-3.527-8.9Z" transform="translate(682.182 185.445)" fill="#a3472b"/>
      <path id="Path_84575" data-name="Path 84575" d="M1310.96,363.476l9.509,3.834,4.755,8.742a6.856,6.856,0,0,0,6.135,3.681h.92a1.7,1.7,0,0,0,1.687-1.687v-.46l-5.215-17.178L1310.5,353.2Z" transform="translate(699.476 188.52)" fill="#a3472b"/>
      <path id="Path_84576" data-name="Path 84576" d="M1196.328,267.461c-2.914-1.227-2.761-3.834.307-6.442s7.208-3.681,12.577-1.38a8.62,8.62,0,0,1,4.908,11.043c-1.074,2.607-2.914,3.221-5.061,2.3l-12.73-5.521" transform="translate(637.42 137.908)" fill="#fff"/>
      <path id="Path_84577" data-name="Path 84577" d="M1206.023,259.42l-2.761-.92a9.1,9.1,0,0,0-1.687,12.27l4.294,1.841c2.147.92,3.988.307,5.062-2.3a8.5,8.5,0,0,0-4.908-10.89Z" transform="translate(640.456 137.974)" fill="#042647"/>
      <path id="Path_84578" data-name="Path 84578" d="M1216.725,256.877h-.307a26.779,26.779,0,0,0-17.638-1.074.935.935,0,0,1-1.073-.46,1.028,1.028,0,0,1,.46-1.073,29.033,29.033,0,0,1,18.711,1.074c.46.153.767.46.614.92s-.307.767-.767.613Z" transform="translate(639.262 135.149)" fill="#042647"/>
      <path id="Path_84579" data-name="Path 84579" d="M1197.469,290.53a1.012,1.012,0,0,1-.767-.613s-1.381-7.669-8.129-10.123a.728.728,0,0,1,.46-1.38h0c7.515,2.761,9.049,10.89,9.2,11.35a.844.844,0,0,1-.614.92h0Z" transform="translate(634.132 148.582)" fill="#042647"/>
      <path id="Path_84580" data-name="Path 84580" d="M1172.072,266.032h-.307a8.62,8.62,0,0,1-5.368-5.675,12.27,12.27,0,0,1,1.074-9.816.79.79,0,0,1,1.381.767h0a10.842,10.842,0,0,0-.921,8.436,8.007,8.007,0,0,0,4.448,4.754.782.782,0,1,1-.276,1.534h0Z" transform="translate(622.259 133.509)" fill="#842e23"/>
      <path id="Path_84581" data-name="Path 84581" d="M1257.761,352.117h0l-51.534-9.969c-.46-.153-.767-.46-.613-.92s.46-.767.92-.613l51.38,9.969a.828.828,0,0,1,.767.767.706.706,0,0,1-.92.767Z" transform="translate(643.472 181.78)" fill="#842e23"/>
      <path id="Path_84582" data-name="Path 84582" d="M1188.867,343.9a.724.724,0,0,1-.767-.767v-.307l2.147-5.061a.828.828,0,0,1,1.534.613l-2.147,5.061C1189.327,343.743,1189.174,343.9,1188.867,343.9Z" transform="translate(634.145 180.031)" fill="#842e23"/>
      <path id="Path_84583" data-name="Path 84583" d="M1331.147,368.973a.782.782,0,0,1-.767-.614l-.767-2.761a9.8,9.8,0,0,0-5.061-5.981l-14.111-6.9a.79.79,0,0,1,.767-1.38h0l14.11,6.9a11.365,11.365,0,0,1,5.828,6.9l.767,2.761a.752.752,0,0,1-.46.92Z" transform="translate(699.228 187.471)" fill="#842e23"/>
      <path id="Path_84584" data-name="Path 84584" d="M1283.027,362.4h0c-.46,0-.767-.46-.613-.767l.46-4.6c0-.46.46-.767.767-.613h0c.46,0,.767.46.613.767l-.46,4.6C1283.794,362.242,1283.488,362.549,1283.027,362.4Z" transform="translate(684.464 190.214)" fill="#842e23"/>
      <path id="Path_84585" data-name="Path 84585" d="M1260.263,280.026a11.963,11.963,0,1,1,11.963-11.963h0A11.979,11.979,0,0,1,1260.263,280.026Zm0-22.546a10.429,10.429,0,1,0,10.43,10.429h0A10.537,10.537,0,0,0,1260.263,257.48Z" transform="translate(666.276 136.693)" fill="#042647"/>
      <path id="Path_84586" data-name="Path 84586" d="M1275.963,267.426a11.963,11.963,0,1,1,11.963-11.963h0a11.979,11.979,0,0,1-11.963,11.963Zm0-22.546a10.429,10.429,0,1,0,10.429,10.43h0a10.445,10.445,0,0,0-10.429-10.43Z" transform="translate(674.656 129.967)" fill="#042647"/>
      <path id="Path_84587" data-name="Path 84587" d="M1261.574,261.976a4.91,4.91,0,0,1,7.669-6.135l-1.227.92a3.405,3.405,0,1,0-5.521,3.988l.307.307Z" transform="translate(672.787 135.571)" fill="#042647"/>
      <path id="Path_84588" data-name="Path 84588" d="M1287.537,301.923l-1.227-.307a15.107,15.107,0,0,1-11.35-15.644l2.3-40.8-1.841,1.534-.92-1.227,4.448-3.681-2.607,44.325a13.8,13.8,0,0,0,10.276,13.957l1.227.307Z" transform="translate(680.261 129.06)" fill="#042647"/>
      <path id="Path_84589" data-name="Path 84589" d="M1262.651,325.37l-1.227-.153a15.092,15.092,0,0,1-12.883-14.417l-1.84-42.945,2.914-2.454,1.074,1.227-2.3,1.994,1.84,42.178a13.589,13.589,0,0,0,11.5,12.884l1.227.153Z" transform="translate(665.423 141.656)" fill="#042647"/>
      <rect id="Rectangle_1820" data-name="Rectangle 1820" width="40.644" height="412.271" transform="translate(1853.38 607.364)" fill="#fff"/>
      <path id="Path_84590" data-name="Path 84590" d="M1208.4,396h40.644v45.245L1208.4,411.951Z" transform="translate(644.98 211.364)" fill="#d7f2f8"/>
      <rect id="Rectangle_1821" data-name="Rectangle 1821" width="318.866" height="45.246" transform="translate(1894.024 607.364)" fill="#d7f2f8"/>
      <rect id="Rectangle_1822" data-name="Rectangle 1822" width="1.534" height="45.246" transform="translate(1893.258 607.364)" fill="#8fd8f2"/>
      <path id="Path_84596" data-name="Path 84596" d="M1166.048,636.131,1011.6,537.817l22.393-64.417,10.123,3.528-19.632,56.289,147.24,93.865Z" transform="translate(539.939 252.676)" fill="#042647"/>
      <path id="Path_84597" data-name="Path 84597" d="M1001.375,636.131l-5.675-9.049,147.24-93.865-19.632-56.289,10.123-3.528,22.393,64.417Z" transform="translate(531.452 252.676)" fill="#042647"/>
      <path id="Path_84598" data-name="Path 84598" d="M1034.854,518.212c-4.755,12.577-8.129,26.227-12.117,38.957l-18.865,60.583L983.627,683.09l-15.491,49.847-3.374,10.736a4.2,4.2,0,0,0,2.761,5.215c.153,0,.46.153.614.153l4.448.767a5.062,5.062,0,0,0,5.368-3.221l7.208-21.933,20.092-60.89,23.313-70.859c6.135-18.558,12.27-37.117,18.252-55.675,1.534-4.448,3.068-8.9,4.6-13.5a23.16,23.16,0,0,0,1.38-11.656,6.764,6.764,0,0,0-10.583-5.061,13.988,13.988,0,0,0-5.522,7.055Q1035.774,515.911,1034.854,518.212Z" transform="translate(514.844 269.981)" fill="#c76e39"/>
      <path id="Path_84599" data-name="Path 84599" d="M1107.653,519.619c4.755,12.577,8.129,26.227,12.117,38.957l18.865,60.583,20.245,65.184,15.491,49.847,3.374,10.736a4.2,4.2,0,0,1-2.761,5.215c-.153,0-.46.153-.614.153l-4.448.767a5.061,5.061,0,0,1-5.368-3.221l-7.208-21.933-19.939-60.89-23.313-70.859c-6.135-18.558-12.27-37.117-18.252-55.675-1.38-4.448-3.068-8.9-4.6-13.5a25.633,25.633,0,0,1-1.38-11.81,6.764,6.764,0,0,1,10.583-5.061,13.988,13.988,0,0,1,5.521,7.055A38.183,38.183,0,0,1,1107.653,519.619Z" transform="translate(581.616 270.568)" fill="#c76e39"/>
      <path id="Path_84600" data-name="Path 84600" d="M920.156,331.976A8.739,8.739,0,0,0,920,333.97c.153,3.374,1.994,6.288,3.834,9.049,13.8,21.166,31.135,41.565,41.411,64.417a294.477,294.477,0,0,1,22.393,72.546c2.607,15.951,3.834,32.209,8.9,47.546,14.417,44.325,59.816,54.448,101.074,46.472,41.871-6.288,83.743-13.19,125.767-18.558,10.583-1.38,21.166-2.607,31.749-3.834a4.247,4.247,0,0,0,1.994-.46,2.914,2.914,0,0,0,1.074-2.607c-.307-3.835-2.607-8.282-3.835-11.963-1.534-4.6-3.374-9.356-5.061-13.957-3.528-9.2-7.516-18.252-11.81-27.147-8.282-17.638-17.331-34.969-26.074-52.454-11.043-21.779-25.767-26.074-49.387-27.3L1045,410.044c-16.258-.767-37.117,2.147-51.227-6.9-12.884-8.129-20.859-22.393-30.675-33.589-5.061-5.675-31.6-43.712-37.73-43.252A6.871,6.871,0,0,0,920.156,331.976Z" transform="translate(491.045 174.16)" fill="#fff"/>
      <path id="Path_84601" data-name="Path 84601" d="M920.156,331.976A8.739,8.739,0,0,0,920,333.97c.153,3.374,1.994,6.288,3.834,9.049,13.8,21.166,31.135,41.565,41.411,64.417a294.477,294.477,0,0,1,22.393,72.546c2.607,15.951,3.834,32.209,8.9,47.546,14.417,44.325,59.816,54.448,101.074,46.472,41.871-6.288,83.743-13.19,125.767-18.558,10.583-1.38,21.166-2.607,31.749-3.834a4.247,4.247,0,0,0,1.994-.46,2.914,2.914,0,0,0,1.074-2.607c-.307-3.835-2.607-8.282-3.835-11.963-1.534-4.6-3.374-9.356-5.061-13.957-3.528-9.2-7.516-18.252-11.81-27.147-8.282-17.638-17.331-34.969-26.074-52.454-11.043-21.779-25.767-26.074-49.387-27.3L1045,410.044c-16.258-.767-37.117,2.147-51.227-6.9-12.884-8.129-20.859-22.393-30.675-33.589-5.061-5.675-31.6-43.712-37.73-43.252A6.871,6.871,0,0,0,920.156,331.976Z" transform="translate(491.045 174.16)" fill="none"/>
      <rect id="Rectangle_1828" data-name="Rectangle 1828" width="62.884" height="39.264" transform="translate(1769.484 568.1)" fill="#8fd8f2"/>
      <path id="Path_84602" data-name="Path 84602" d="M1389.531,361.6,1274.5,368.348l.153,6.749,115.338-.153" transform="translate(680.261 193.003)" fill="#0f5198"/>
      <path id="Path_84603" data-name="Path 84603" d="M1375.2,263.4" transform="translate(734.009 140.589)" fill="#3165a9"/>
      <path id="Path_84604" data-name="Path 84604" d="M1490.944,380.768l-93.1-.46c-14.877.46-42.178-20.245-45.246-22.7l3.681-4.908c7.669,5.982,29.908,21.319,40.951,21.319h.46l93.252.46Z" transform="translate(721.947 188.253)" fill="#042647"/>
      <path id="Path_84605" data-name="Path 84605" d="M1358.55,426.9l-11.35.92L1380.943,263.4l10.89,3.221Z" transform="translate(719.064 140.589)" fill="#0f5198"/>
      <path id="Path_84606" data-name="Path 84606" d="M1380.849,263.1,1349.1,413.714C1350.634,358.652,1350.48,359.113,1380.849,263.1Z" transform="translate(720.078 140.429)" fill="#064283"/>
      <rect id="Rectangle_1829" data-name="Rectangle 1829" width="380.676" height="39.264" transform="translate(1832.214 568.1)" fill="#fff"/>
      <rect id="Rectangle_1832" data-name="Rectangle 1832" width="6.135" height="251.074" transform="translate(2094.792)" fill="#042647"/>
      <g id="Group_16446" data-name="Group 16446" transform="translate(-764.119 331.763)">
        <path id="Path_84555" data-name="Path 84555" d="M1195.6,206.3l2.641,1.585Z" transform="translate(683.004 147.322)" fill="#c76e39"/>
        <path id="Path_84556" data-name="Path 84556" d="M1152.1,219.1l2.465-3.7C1153.684,216.632,1152.8,217.865,1152.1,219.1Z" transform="translate(649.916 154.243)" fill="#c76e39"/>
        <path id="Path_84557" data-name="Path 84557" d="M1150.4,222.606l2.993-5.106a48.523,48.523,0,0,0-2.993,5.106Z" transform="translate(648.623 155.841)" fill="#c76e39"/>
        <rect id="Rectangle_1823" data-name="Rectangle 1823" width="68.489" height="107.223" transform="translate(1777.895 100.443)" fill="#06a29b"/>
        <path id="Path_84591" data-name="Path 84591" d="M1215.713,178.547H1134.9V59h80.813Zm-68.489-12.324h56.164v-94.9h-56.164Z" transform="translate(636.834 35.28)" fill="#078276"/>
        <rect id="Rectangle_1824" data-name="Rectangle 1824" width="145.957" height="80.285" transform="translate(1954.487 286.542)" fill="#06a29b"/>
        <path id="Path_84592" data-name="Path 84592" d="M1393.481,257.309H1235.2V164.7h158.281Zm-145.957-12.324h133.632V177.024H1247.524Z" transform="translate(713.125 115.679)" fill="#078276"/>
        <rect id="Rectangle_1825" data-name="Rectangle 1825" width="161.274" height="76.588" transform="translate(1710.991 241.469)" fill="#06a29b"/>
        <path id="Path_84593" data-name="Path 84593" d="M1270.4,228.012H1096.8V139.1h173.6Zm-161.1-12.324h148.95V151.424H1109.3Z" transform="translate(607.853 96.207)" fill="#078276"/>
        <rect id="Rectangle_1826" data-name="Rectangle 1826" width="68.489" height="107.223" transform="translate(1659.933 71.04)" fill="#06a29b"/>
        <path id="Path_84594" data-name="Path 84594" d="M1148.713,161.847H1067.9V42.3h80.813Zm-68.489-12.324h56.164v-94.9h-56.164Z" transform="translate(585.871 22.577)" fill="#078276"/>
        <rect id="Rectangle_1827" data-name="Rectangle 1827" width="159.338" height="179.233" transform="translate(1905.366 74.032)" fill="#06a29b"/>
        <path id="Path_84595" data-name="Path 84595" d="M1378.962,235.381H1207.3V44h171.662Zm-159.338-12.324h147.013V56.324H1219.624Z" transform="translate(691.903 23.871)" fill="#078276"/>
        <path id="Path_84607" data-name="Path 84607" d="M1006.961,190.421a1.761,1.761,0,0,1-1.761-1.761,2.5,2.5,0,0,1,.352-1.056l50.707-66.552a1.782,1.782,0,1,1,2.993,1.937h0l-.176.176-50.706,66.552A2.184,2.184,0,0,1,1006.961,190.421Z" transform="translate(538.179 81.86)" fill="#078276"/>
        <path id="Path_84608" data-name="Path 84608" d="M1086.9,190.387a1.6,1.6,0,0,1-1.408-.7l-50.707-66.552a1.761,1.761,0,0,1,.176-2.465,1.866,1.866,0,0,1,2.465.176l.176.176,50.706,66.376a1.761,1.761,0,0,1-.352,2.465A1.514,1.514,0,0,1,1086.9,190.387Z" transform="translate(560.359 81.894)" fill="#078276"/>
        <rect id="Rectangle_1830" data-name="Rectangle 1830" width="130.991" height="144.02" transform="translate(1530.526 265.942)" fill="#078276"/>
        <rect id="Rectangle_1831" data-name="Rectangle 1831" width="131.167" height="25.177" transform="translate(1530.526 265.942)" fill="#292852"/>
        <path id="Path_84609" data-name="Path 84609" d="M1020.057,207.688H1006.5v-11.8a54.716,54.716,0,0,0,7.571-.528,19.79,19.79,0,0,0,5.458-1.761,11.779,11.779,0,0,0,3.7-3.521,17.808,17.808,0,0,0,2.289-5.282h13.557v71.834h-18.839Z" transform="translate(539.168 130.968)" fill="#55d8cb"/>
        <path id="Path_84610" data-name="Path 84610" d="M1078.74,185.676v14.261h-27.29l-.88,12.148a19.458,19.458,0,0,1,5.986-3.873,17.325,17.325,0,0,1,7.395-1.408c5.81,0,10.388,1.937,13.381,5.634s4.578,9.507,4.578,17.254a57.41,57.41,0,0,1-1.233,12.324,21.357,21.357,0,0,1-3.873,8.627,17.482,17.482,0,0,1-7.218,5.106,30.669,30.669,0,0,1-11.268,1.585q-12.324,0-17.958-5.282c-3.7-3.521-5.458-8.451-5.458-14.965V234.8h17.606v2.465a12.464,12.464,0,0,0,1.409,6.866,4.525,4.525,0,0,0,3.873,1.761,6.215,6.215,0,0,0,2.465-.528,4.1,4.1,0,0,0,1.761-2.113,19.382,19.382,0,0,0,1.056-4.578c.176-2.113.352-4.754.352-8.275a17.611,17.611,0,0,0-1.409-8.451,4.3,4.3,0,0,0-4.05-2.465,5.282,5.282,0,0,0-3.7,1.408,6.216,6.216,0,0,0-1.409,4.578H1035.78l1.585-39.966Z" transform="translate(560.77 131.5)" fill="#55d8cb"/>
        <path id="Path_84611" data-name="Path 84611" d="M1308.646,92.83l7.747,57.925a25.265,25.265,0,0,1-21.479,28.17h-.529a45.106,45.106,0,0,1-31.867-8.8l-.529-.352A40.035,40.035,0,0,1,1247.2,146l-.352-1.409-3.169.352a11.464,11.464,0,1,1-3.821-22.607l.827-.106,2.993-.528,1.409-37.854,34.684-9.86a22.712,22.712,0,0,1,28.17,15.511v.158a20.436,20.436,0,0,1,.7,3.169" transform="translate(709.4 45.995)" fill="#55d8cb"/>
        <path id="Path_84612" data-name="Path 84612" d="M1308.646,92.83l7.747,57.925a25.265,25.265,0,0,1-21.479,28.17h-.529a45.106,45.106,0,0,1-31.867-8.8l-.529-.352A40.035,40.035,0,0,1,1247.2,146l-.352-1.409-3.169.352a11.464,11.464,0,1,1-3.821-22.607l.827-.106,2.993-.528,1.409-37.854,34.684-9.86a22.712,22.712,0,0,1,28.17,15.511v.158a20.436,20.436,0,0,1,.7,3.169" transform="translate(709.4 45.995)" fill="none"/>
        <path id="Path_84613" data-name="Path 84613" d="M1275.51,119.8c-10.916,0-19.015-7.747-19.015-7.747a.747.747,0,0,1,1.056-1.056c.176.176,10.74,10.212,23.769,6.514.352-.176.7.176.88.528h0c.176.352-.176.7-.528.88a23.685,23.685,0,0,1-6.162.88Z" transform="translate(729.156 74.662)" fill="#292852"/>
        <path id="Path_84614" data-name="Path 84614" d="M1243.12,127.836l5.986-.7a4.718,4.718,0,0,0,4.226-5.106l-1.408-23.592a4.225,4.225,0,0,1,3.855-4.56h.9c9.859.88,31.867,2.289,47.889-.176,21.128-3.169,17.782-26.938,5.986-28.522s-16.374,9.86-16.374,9.86-38.206-16.022-55.636,9.155,1.937,44.016,1.937,44.016Z" transform="translate(710.135 39.863)" fill="#078276"/>
        <path id="Path_84615" data-name="Path 84615" d="M1250.6,94.951a.757.757,0,0,1-.7-.7c0-.176.176-.528.352-.528a25.635,25.635,0,0,1,16.022-3.873.616.616,0,0,1,.528.88.81.81,0,0,1-.88.7,24.65,24.65,0,0,0-14.965,3.7C1250.956,94.775,1250.78,94.951,1250.6,94.951Z" transform="translate(724.307 58.663)" fill="#292852"/>
        <path id="Path_84616" data-name="Path 84616" d="M1280.008,96.5h-.352l-8.275-3.169a.845.845,0,0,1-.352-1.056.651.651,0,0,1,.845-.37h0l8.275,3.169a.651.651,0,0,1,.37.845h0a.475.475,0,0,1-.423.528Z" transform="translate(740.328 60.278)" fill="#292852"/>
        <path id="Path_84617" data-name="Path 84617" d="M1266.01,106.9c2.817,0,3.7-2.113,2.289-5.282s-4.4-5.634-9.683-5.81a7.377,7.377,0,0,0-7.905,6.8v.246c0,2.465,1.232,3.7,3.169,3.7l12.148.352" transform="translate(724.922 63.263)" fill="#fff"/>
        <path id="Path_84618" data-name="Path 84618" d="M1259.775,96.1a8.8,8.8,0,0,1,5.81,5.106c1.408,3.345.7,5.458-2.289,5.282l-7.747-.176a6.039,6.039,0,0,1,.546-8.521l.334-.282a5.158,5.158,0,0,1,3.345-1.409" transform="translate(727.46 63.5)" fill="#292852"/>
        <path id="Path_84619" data-name="Path 84619" d="M1276.567,115.361c-.176,0-.528-.176-.528-.352l-10.388-15.67a.828.828,0,0,1,.176-1.056c.352-.352.7-.176,1.056.176v.176l10.388,15.67c.176.352.176.88-.176,1.056Z" transform="translate(736.197 65.014)" fill="#292852"/>
        <path id="Path_84620" data-name="Path 84620" d="M1271.085,101.79c-1.409,3.345-.528,5.458,2.289,5.282l8.8-.528-1.409-10.74h-.352a9.666,9.666,0,0,0-9.331,5.986Z" transform="translate(739.919 63.268)" fill="#fff"/>
        <path id="Path_84621" data-name="Path 84621" d="M1273.769,100.678a6.391,6.391,0,0,0,1.585,5.81l4.4-.176L1278.347,96.1a6.356,6.356,0,0,0-4.578,4.578Z" transform="translate(742.34 63.5)" fill="#292852"/>
        <path id="Path_84622" data-name="Path 84622" d="M1255.861,198.871a1.761,1.761,0,1,1,0-3.521l69.9-.352-1.937-6.866a1.567,1.567,0,0,1,.9-2.025h.334a1.127,1.127,0,0,1,1.056,0l24.3,8.451a1.782,1.782,0,0,1-1.232,3.345l-20.952-7.395,1.761,5.81a1.567,1.567,0,0,1-.9,2.025h-.862l-72.362.528Z" transform="translate(727.501 131.862)" fill="#55d8cb"/>
        <path id="Path_84623" data-name="Path 84623" d="M1325.406,203.729a1.655,1.655,0,0,1-1.761-1.549,1.694,1.694,0,0,1,0-.211v-.528l1.937-6.162-69.721-1.056a1.761,1.761,0,0,1,0-3.521l72.186,1.056a1.761,1.761,0,0,1,1.761,1.761v.528l-1.585,4.93L1349,191.228a1.783,1.783,0,0,1,1.232,3.345h0l-24.12,8.979a1.339,1.339,0,0,1-.7.176Z" transform="translate(727.501 135.455)" fill="#55d8cb"/>
        <path id="Path_84624" data-name="Path 84624" d="M1266.033,197.791a1.849,1.849,0,0,1-1.585-.88l-4.05-7.747a1.813,1.813,0,0,1,3.169-1.761h0l4.049,7.747a1.76,1.76,0,0,1-.616,2.412h-.088C1266.561,197.615,1266.385,197.791,1266.033,197.791Z" transform="translate(732.118 132.239)" fill="#55d8cb"/>
        <path id="Path_84625" data-name="Path 84625" d="M1261.963,202.791a1.761,1.761,0,0,1-1.76-1.761,1.584,1.584,0,0,1,.176-.88l4.049-7.747a1.813,1.813,0,0,1,3.169,1.761h0l-4.05,7.747a1.848,1.848,0,0,1-1.584.88Z" transform="translate(732.139 136.041)" fill="#55d8cb"/>
        <path id="Path_84626" data-name="Path 84626" d="M1257.333,197.791a1.848,1.848,0,0,1-1.584-.88l-4.05-7.747a1.813,1.813,0,0,1,3.169-1.761h0l4.05,7.747a1.76,1.76,0,0,1-.616,2.412h-.088a7.609,7.609,0,0,0-.88.229Z" transform="translate(725.501 132.239)" fill="#55d8cb"/>
        <path id="Path_84627" data-name="Path 84627" d="M1253.163,202.791a1.761,1.761,0,0,1-1.76-1.761,1.585,1.585,0,0,1,.176-.88l4.049-7.747a1.813,1.813,0,0,1,3.169,1.761h0l-4.05,7.747A1.655,1.655,0,0,1,1253.163,202.791Z" transform="translate(725.445 136.041)" fill="#55d8cb"/>
        <path id="Path_84628" data-name="Path 84628" d="M1261.933,197.791a1.849,1.849,0,0,1-1.585-.88l-4.049-7.747a1.813,1.813,0,0,1,3.169-1.761h0l4.05,7.747a1.761,1.761,0,0,1-.616,2.412h-.088C1262.461,197.615,1262.285,197.791,1261.933,197.791Z" transform="translate(729 132.239)" fill="#55d8cb"/>
        <path id="Path_84629" data-name="Path 84629" d="M1257.863,202.791a1.761,1.761,0,0,1-1.761-1.761,1.587,1.587,0,0,1,.176-.88l4.049-7.747a1.813,1.813,0,1,1,3.169,1.761h0l-4.049,7.747A2.1,2.1,0,0,1,1257.863,202.791Z" transform="translate(729.019 136.041)" fill="#55d8cb"/>
        <path id="Path_84630" data-name="Path 84630" d="M1295.928,187.4l18.663,7.571-19.191,9.155" transform="translate(758.915 132.946)" fill="#55d8cb"/>
        <circle id="Ellipse_935" data-name="Ellipse 935" cx="13.557" cy="13.557" r="13.557" transform="translate(1746.556 267.527)" fill="#55d8cb"/>
        <path id="Path_84631" data-name="Path 84631" d="M1137.6,175.5s38.03-15.67,89.44-13.733v36.8l-23.944-.176" transform="translate(638.887 113.326)" fill="#55d8cb"/>
        <path id="Path_84632" data-name="Path 84632" d="M1103.8,166.569v28.522h128.7S1173.521,163.928,1103.8,166.569Z" transform="translate(613.178 116.979)" fill="#06a29b"/>
        <path id="Path_84633" data-name="Path 84633" d="M1137.8,170.473,1160.864,146H1179.7Z" transform="translate(639.04 101.455)" fill="#55d8cb"/>
        <path id="Path_84634" data-name="Path 84634" d="M1138.3,175.8l72.01-29.4h15.67v11.62Z" transform="translate(639.42 101.76)" fill="#55d8cb"/>
        <path id="Path_84635" data-name="Path 84635" d="M1135.6,166.6l14.085-20.6-11.444.176Z" transform="translate(637.366 101.455)" fill="#55d8cb"/>
        <path id="Path_84636" data-name="Path 84636" d="M1130.109,170.994l-26.41-2.641V155.5Z" transform="translate(613.102 108.682)" fill="#55d8cb"/>
        <path id="Path_84637" data-name="Path 84637" d="M1131.946,169.393,1103.6,155.131V145.8h9.156Z" transform="translate(613.025 101.303)" fill="#55d8cb"/>
        <path id="Path_84638" data-name="Path 84638" d="M1115.9,146.152l12.5,18.135.176-18.487" transform="translate(622.381 101.303)" fill="#55d8cb"/>
        <path id="Path_84639" data-name="Path 84639" d="M1129.689,162.2,1127.4,146h9.86Z" transform="translate(631.128 101.455)" fill="#55d8cb"/>
        <path id="Path_84640" data-name="Path 84640" d="M1165.175,94.3a22.884,22.884,0,0,0-6.867-8.451,16.793,16.793,0,0,0-6.162-2.465,3.521,3.521,0,0,0-2.993.352,4.437,4.437,0,0,0-1.761,2.641,14.435,14.435,0,0,0,.176,7.747,8.8,8.8,0,0,0,7.219,6.514l4.226.352c-3.521,3.169-6.867,7.219-6.338,12.148.352,3.345,2.113,7.571,5.282,9.155,2.993,1.232,4.578-2.817,5.282-4.93,1.232-3.7,2.113-7.571,3.521-11.268" transform="translate(645.997 53.684)" fill="#55d8cb"/>
        <path id="Path_84641" data-name="Path 84641" d="M1165.175,94.3a22.884,22.884,0,0,0-6.867-8.451,16.793,16.793,0,0,0-6.162-2.465,3.521,3.521,0,0,0-2.993.352,4.437,4.437,0,0,0-1.761,2.641,14.435,14.435,0,0,0,.176,7.747,8.8,8.8,0,0,0,7.219,6.514l4.226.352c-3.521,3.169-6.867,7.219-6.338,12.148.352,3.345,2.113,7.571,5.282,9.155,2.993,1.232,4.578-2.817,5.282-4.93,1.232-3.7,2.113-7.571,3.521-11.268" transform="translate(645.997 53.684)" fill="none"/>
        <path id="Path_84642" data-name="Path 84642" d="M1155.079,101.6a37.236,37.236,0,0,0,12.5,0c6.338-1.056-1.76-8.1-1.76-8.1l-4.754-8.627L1146.1,81.7l.7,19.543h4.05" transform="translate(645.352 52.547)" fill="#078276"/>
        <path id="Path_84643" data-name="Path 84643" d="M1159.685,94.3a22.888,22.888,0,0,1,6.866-8.451,16.8,16.8,0,0,1,6.162-2.465,3.521,3.521,0,0,1,2.993.352,4.436,4.436,0,0,1,1.761,2.641,14.435,14.435,0,0,1-.176,7.747,8.8,8.8,0,0,1-7.218,6.514l-4.226.352c3.521,3.169,6.867,7.219,6.338,12.148-.352,3.345-2.113,7.571-5.282,9.155-2.993,1.232-4.578-2.817-5.282-4.93-1.232-3.7-2.113-7.571-3.521-11.268" transform="translate(654.48 53.684)" fill="#55d8cb"/>
        <path id="Path_84644" data-name="Path 84644" d="M1159.685,94.3a22.888,22.888,0,0,1,6.866-8.451,16.8,16.8,0,0,1,6.162-2.465,3.521,3.521,0,0,1,2.993.352,4.436,4.436,0,0,1,1.761,2.641,14.435,14.435,0,0,1-.176,7.747,8.8,8.8,0,0,1-7.218,6.514l-4.226.352c3.521,3.169,6.867,7.219,6.338,12.148-.352,3.345-2.113,7.571-5.282,9.155-2.993,1.232-4.578-2.817-5.282-4.93-1.232-3.7-2.113-7.571-3.521-11.268" transform="translate(654.48 53.684)" fill="none"/>
        <path id="Path_84645" data-name="Path 84645" d="M1171.547,101.6a37.236,37.236,0,0,1-12.5,0c-6.338-1.056,1.761-8.1,1.761-8.1l4.754-8.627,14.965-3.169-.7,19.543h-4.05" transform="translate(653.357 52.547)" fill="#078276"/>
        <path id="Path_84646" data-name="Path 84646" d="M1158.884,87.9h0a1.585,1.585,0,0,1,1.585,1.585h0V105.33a1.585,1.585,0,0,1-1.585,1.585h0a1.584,1.584,0,0,1-1.584-1.585h0V89.485A1.584,1.584,0,0,1,1158.884,87.9Z" transform="translate(653.871 57.262)" fill="#292852"/>
        <path id="Path_84647" data-name="Path 84647" d="M1159.917,94.44a.387.387,0,0,1-.352-.352,21.446,21.446,0,0,0-4.4-11.62.5.5,0,0,1,.7-.7h0c.176.176,3.7,4.049,4.578,12.148Q1160.445,94.176,1159.917,94.44Z" transform="translate(652.135 52.483)" fill="#292852"/>
        <path id="Path_84648" data-name="Path 84648" d="M1158.752,94.44h0c-.176,0-.352-.176-.352-.528h0c.88-8.1,4.4-11.972,4.578-12.148a.5.5,0,1,1,.7.7h0a22.888,22.888,0,0,0-4.4,11.62C1159.28,94.264,1158.928,94.44,1158.752,94.44Z" transform="translate(654.709 52.483)" fill="#292852"/>
        <path id="Path_84649" data-name="Path 84649" d="M1108.922,89.86a24.333,24.333,0,0,0,.528-3.521h8.275a21.131,21.131,0,0,1-1.408,7.395,34.787,34.787,0,0,1-3.521,6.69l6.162,8.8h-10.212l-2.641-3.7a10.793,10.793,0,0,1-4.754,3.169,17.22,17.22,0,0,1-6.691,1.056,16.884,16.884,0,0,1-7.218-1.232,11.745,11.745,0,0,1-4.4-3.345,10.246,10.246,0,0,1-2.113-4.4,17.742,17.742,0,0,1-.528-4.4,12.96,12.96,0,0,1,2.465-7.571,26.131,26.131,0,0,1,7.042-6.162L1088.323,80a14.923,14.923,0,0,1-1.585-2.641l-1.056-2.113c-.176-.7-.352-1.232-.528-1.937a7.23,7.23,0,0,1-.176-1.937,12.1,12.1,0,0,1,.88-4.225,8.608,8.608,0,0,1,2.465-3.169,10.034,10.034,0,0,1,3.873-1.937,16.849,16.849,0,0,1,10.212,0,12.659,12.659,0,0,1,3.7,2.113,7.731,7.731,0,0,1,2.112,3.169,9.471,9.471,0,0,1,.7,3.873,11.058,11.058,0,0,1-2.113,6.514,27.509,27.509,0,0,1-6.162,5.81l7.043,9.684a14.768,14.768,0,0,0,1.233-3.345Zm-18.487,2.465a8.169,8.169,0,0,0-1.056,4.049,8.8,8.8,0,0,0,.352,2.113,5.985,5.985,0,0,0,3.345,3.521,7.975,7.975,0,0,0,2.817.528,7.219,7.219,0,0,0,6.162-3.169L1094.133,88.1a21.247,21.247,0,0,0-3.7,4.226Zm4.754-15.67,1.056,1.585,1.761-1.409a8.294,8.294,0,0,0,2.289-2.641,5.734,5.734,0,0,0,.7-2.465,4.121,4.121,0,0,0-1.233-2.993,4.79,4.79,0,0,0-2.993-1.056,4,4,0,0,0-2.817,1.056,3.521,3.521,0,0,0-1.232,2.817,10.672,10.672,0,0,0,2.465,5.106Z" transform="translate(595.378 36.992)" fill="#55d8cb"/>
        <circle id="Ellipse_1241" data-name="Ellipse 1241" cx="4.5" cy="4.5" r="4.5" transform="translate(1591.777 200.459)" fill="#fff"/>
      </g>
      <path id="Path_84650" data-name="Path 84650" d="M1375.7,185.4v.307h.153Z" transform="translate(734.276 98.957)" fill="#fff"/>
      <path id="Path_84651" data-name="Path 84651" d="M1360.153,185.4l-.153.307h.153Z" transform="translate(725.896 98.957)" fill="#fff"/>
      <path id="Path_84652" data-name="Path 84652" d="M1372.063,197.257a11.917,11.917,0,0,0,11.963-11.657H1360.1A12.025,12.025,0,0,0,1372.063,197.257Z" transform="translate(725.95 99.063)" fill="#fff"/>
      <rect id="Rectangle_1833" data-name="Rectangle 1833" width="44.939" height="1.534" transform="translate(1787.429 606.597)" fill="#5a87cf"/>
      <rect id="Rectangle_1834" data-name="Rectangle 1834" width="62.884" height="1.534" transform="translate(1769.484 567.333)" fill="#5a87cf"/>
      <path id="Path_84653" data-name="Path 84653" d="M1342.4,200.311a39.11,39.11,0,1,1,78.221,0" transform="translate(716.502 86.04)" fill="#064283"/>
      <path id="Path_84654" data-name="Path 84654" d="M966.13,440.42a158.65,158.65,0,0,0,5.782,26.2c14.417,44.325,59.816,54.448,101.074,46.473,16.871-2.531,33.742-5.169,50.614-7.761C1020.5,504.853,979.228,459.975,966.13,440.42Z" transform="translate(515.669 235.073)" fill="#8fd8f2"/>
    </g>
  </g>
</svg>
